<svg version="1.2" xmlns="http://www.w3.org/2000/svg" viewBox="0 0 285 112" width="285" height="112">
	<title>logo (1)-svg</title>
	<style>
		tspan { white-space:pre } 
		.t0 { font-size: 82px;fill: #000001;font-weight: bold;font-family: "Times New Roman" } 
		.t1 { font-size: 31px;fill: #000001;font-weight: bold;font-family: "Times New Roman" } 
		.s2 { fill: #231f20 } 
		.s3 { fill: #d31f26 } 
	</style>
	<g id="Layer">
		<text id="NIET" style="transform: matrix(1,0,0,1.03,85.84,59.39)" >
			<tspan x="0" y="0" class="t0">NIET
</tspan>
		</text>
		<text id="Gr" style="transform: matrix(1,0,0,1.03,85.82,90.82)" >
			<tspan x="0" y="0" class="t1">Gr
</tspan>
		</text>
		<text id="eater" style="transform: matrix(1,0,0,1.03,123.35,90.82)" >
			<tspan x="0" y="0" class="t1">eater
</tspan>
		</text>
		<text id=" Noida" style="transform: matrix(1,0,0,1.03,190.27,90.82)" >
			<tspan x="0" y="0" class="t1"> Noida
</tspan>
		</text>
		<path id="Layer" fill-rule="evenodd" class="s2" d="m136 101.9l3 8h-1.4l-0.6-1.5h0.6v-1.2h-1l-1.1-3.2-1.1 3.2h-1v1.2h0.6l-0.6 1.5h-1.4l3-8zm1.1 6.5l-0.5-1.2h-2.2l-0.4 1.2z"/>
		<path id="Layer" class="s2" d="m141.3 107.7q0 0.5 0.3 0.8 0.2 0.3 0.7 0.3 0.5 0 0.8-0.3 0.2-0.3 0.2-0.8l0.1 1.3q-0.2 0.4-0.6 0.7-0.3 0.3-0.9 0.3-0.9 0-1.4-0.6-0.5-0.6-0.5-1.7v-3.5h1.3c0 0 0 3.5 0 3.5zm2-3.5h1.3v5.7h-1.3z"/>
		<path id="Layer" class="s2" d="m145.8 104.2h2.7v1.2h-2.7zm2 5.7q-0.7 0-1.1-0.4-0.3-0.3-0.3-1.1v-5.9h1.3v5.7q0 0.2 0.1 0.3 0.1 0.2 0.2 0.1h0.5v1.3h-0.7z"/>
		<path id="Layer" fill-rule="evenodd" class="s2" d="m152.2 110q-0.8 0-1.3-0.3-0.6-0.3-0.9-0.8-0.2-0.6-0.2-1.4v-0.9q0-0.8 0.2-1.3 0.3-0.6 0.9-0.9 0.5-0.3 1.3-0.3 0.7 0 1.3 0.3 0.5 0.3 0.8 0.9 0.3 0.5 0.3 1.3v1q0 0.7-0.3 1.3-0.3 0.5-0.8 0.8-0.6 0.3-1.3 0.3zm0-1.2q0.5 0 0.8-0.4 0.3-0.3 0.3-0.8v-1q0-0.6-0.3-0.9-0.3-0.3-0.8-0.3-0.6 0-0.8 0.3-0.3 0.3-0.3 0.9v1q0 0.5 0.3 0.8 0.2 0.4 0.8 0.4z"/>
		<path id="Layer" class="s2" d="m159.5 106.5q0-0.5-0.3-0.8-0.3-0.3-0.8-0.3-0.5 0-0.7 0.3-0.3 0.2-0.3 0.7l-0.1-1.2q0.3-0.5 0.6-0.8 0.4-0.2 1-0.3 0.9 0 1.4 0.7 0.5 0.6 0.5 1.7v3.4h-1.3zm-3.4-2.2h1.3v5.7h-1.3z"/>
		<path id="Layer" fill-rule="evenodd" class="s2" d="m164.6 110q-0.7 0-1.3-0.3-0.5-0.3-0.8-0.8-0.3-0.6-0.3-1.4v-0.9q0-0.8 0.3-1.3 0.3-0.6 0.8-0.9 0.6-0.3 1.3-0.3 0.8 0 1.3 0.3 0.6 0.3 0.9 0.9 0.2 0.5 0.2 1.3v1q0 0.7-0.2 1.3-0.3 0.5-0.9 0.8-0.5 0.3-1.3 0.3zm0-1.2q0.5 0 0.8-0.4 0.3-0.3 0.3-0.8v-1q0-0.6-0.3-0.9-0.3-0.3-0.8-0.3-0.5 0-0.8 0.3-0.3 0.3-0.3 0.9v1q0 0.5 0.3 0.8 0.3 0.4 0.8 0.4z"/>
		<path id="Layer" class="s2" d="m171.9 106.6q0-0.6-0.3-0.9-0.2-0.3-0.7-0.3-0.5 0-0.8 0.3-0.2 0.2-0.3 0.7l-0.1-1.2q0.3-0.5 0.7-0.8 0.4-0.3 0.9-0.3 0.6 0 1 0.3 0.5 0.3 0.7 0.8 0.2 0.6 0.2 1.4v3.3h-1.3zm-3.4-2.3h1.3v5.7h-1.3zm6.8 2.4q0-0.6-0.3-0.9-0.3-0.3-0.8-0.3-0.5 0-0.7 0.3-0.3 0.3-0.3 0.8l-0.2-1.2q0.2-0.6 0.7-0.9 0.4-0.3 0.9-0.3 0.7 0 1.1 0.3 0.4 0.3 0.7 0.8 0.2 0.6 0.2 1.4v3.3h-1.3c0 0 0-3.3 0-3.3z"/>
		<path id="Layer" fill-rule="evenodd" class="s2" d="m180.4 110q-0.7 0-1.3-0.3-0.5-0.3-0.8-0.8-0.3-0.6-0.3-1.4v-0.9q0-0.8 0.3-1.3 0.3-0.6 0.8-0.9 0.6-0.3 1.3-0.3 0.8 0 1.3 0.3 0.6 0.3 0.9 0.9 0.3 0.5 0.2 1.3v1q0.1 0.7-0.2 1.3-0.3 0.5-0.9 0.8-0.5 0.3-1.3 0.3zm0-1.2q0.6 0 0.8-0.4 0.3-0.3 0.3-0.8v-1q0-0.6-0.3-0.9-0.2-0.3-0.8-0.3-0.5 0-0.8 0.3-0.3 0.3-0.3 0.9v1q0 0.5 0.3 0.8 0.3 0.4 0.8 0.4z"/>
		<path id="Layer" class="s2" d="m185.5 107.7q0 0.5 0.3 0.8 0.3 0.3 0.8 0.3 0.4 0 0.7-0.3 0.3-0.3 0.3-0.8v1.3q-0.1 0.4-0.5 0.7-0.4 0.3-0.9 0.3-1 0-1.5-0.6-0.5-0.6-0.5-1.7v-3.5h1.3c0 0 0 3.5 0 3.5zm2.1-3.5h1.3v5.7h-1.3z"/>
		<path id="Layer" class="s2" d="m192.6 110q-0.5 0-1-0.1-0.5-0.1-0.9-0.3-0.4-0.2-0.7-0.4l0.8-1q0.4 0.3 0.9 0.5 0.5 0.1 0.9 0.1 0.6 0 0.9-0.1 0.3-0.2 0.3-0.5 0-0.2-0.1-0.4-0.2-0.1-0.4-0.1-0.3-0.1-0.7-0.1-0.1 0-0.1 0-0.1 0-0.2 0 0 0 0 0 0 0-0.1 0-0.6-0.1-1-0.2-0.3-0.1-0.6-0.5-0.3-0.3-0.3-0.9 0-0.6 0.3-1 0.2-0.4 0.8-0.6 0.5-0.2 1.2-0.2 0.5 0 0.9 0 0.4 0.1 0.8 0.3 0.3 0.2 0.7 0.4l-0.8 1q-0.4-0.3-0.8-0.4-0.4-0.1-0.8-0.1-0.5 0-0.8 0.1-0.3 0.2-0.3 0.5 0 0.1 0.2 0.2 0.1 0.1 0.4 0.2 0.2 0 0.6 0 0 0 0.1 0 0 0 0.1 0 0 0 0 0 0 0 0.1 0 0.6 0.1 1 0.2 0.4 0.1 0.7 0.5 0.3 0.3 0.3 1.1 0 0.6-0.3 1-0.2 0.4-0.8 0.6-0.5 0.2-1.3 0.2"/>
		<path id="Layer" class="s2" d="m199.4 101.9h1.3v8h-1.3z"/>
		<path id="Layer" class="s2" d="m205.8 106.5q0-0.5-0.2-0.8-0.3-0.3-0.8-0.3-0.5 0-0.8 0.3-0.2 0.2-0.2 0.7l-0.1-1.2q0.2-0.5 0.6-0.8 0.4-0.2 0.9-0.3 1 0 1.5 0.7 0.5 0.6 0.5 1.7v3.4h-1.4zm-3.3-2.2h1.3v5.7h-1.3z"/>
		<path id="Layer" class="s2" d="m210.9 110q-0.5 0-1-0.1-0.5-0.1-0.9-0.3-0.4-0.2-0.7-0.4l0.8-1q0.4 0.3 0.9 0.5 0.5 0.1 0.9 0.1 0.6 0 0.9-0.1 0.3-0.2 0.3-0.5 0-0.2-0.1-0.4-0.2-0.1-0.4-0.1-0.3-0.1-0.7-0.1-0.1 0-0.1 0-0.1 0-0.2 0 0 0 0 0 0 0-0.1 0-0.6-0.1-1-0.2-0.4-0.1-0.6-0.5-0.3-0.3-0.3-0.9 0-0.6 0.3-1 0.2-0.4 0.8-0.6 0.5-0.2 1.2-0.2 0.4 0 0.9 0 0.4 0.1 0.8 0.3 0.3 0.2 0.7 0.4l-0.8 1q-0.4-0.3-0.8-0.4-0.4-0.1-0.8-0.1-0.5 0-0.8 0.1-0.3 0.2-0.3 0.5 0 0.1 0.2 0.2 0.1 0.1 0.3 0.2 0.3 0 0.7 0 0 0 0.1 0 0 0 0.1 0 0 0 0 0 0 0 0 0 0.7 0.1 1.1 0.2 0.4 0.1 0.7 0.5 0.3 0.3 0.3 1.1 0 0.6-0.3 1-0.3 0.4-0.8 0.6-0.5 0.2-1.3 0.2z"/>
		<path id="Layer" class="s2" d="m214.2 104.2h2.7v1.2h-2.7zm2 5.7q-0.8 0-1.1-0.4-0.3-0.3-0.3-1.1v-5.9h1.3v5.7q0 0.2 0.1 0.3 0.1 0.2 0.2 0.1h0.5v1.3h-0.7z"/>
		<path id="Layer" class="s2" d="m218.3 104.2h1.3v5.7h-1.3zm0-2.2h1.3v1.3h-1.3z"/>
		<path id="Layer" class="s2" d="m220.7 104.2h2.7v1.2h-2.7zm2 5.7q-0.7 0-1.1-0.4-0.3-0.3-0.3-1.1v-5.9h1.3v5.7q0 0.2 0.1 0.3 0.1 0.2 0.2 0.1h0.5v1.3h-0.7z"/>
		<path id="Layer" class="s2" d="m226.1 107.7q0 0.5 0.3 0.8 0.3 0.3 0.8 0.3 0.5 0 0.7-0.3 0.3-0.3 0.3-0.8l0.1 1.3q-0.2 0.4-0.6 0.7-0.4 0.3-0.9 0.3-1 0-1.5-0.6-0.5-0.6-0.5-1.7v-3.5h1.3c0 0 0 3.5 0 3.5zm2.1-3.5h1.3v5.7h-1.3z"/>
		<path id="Layer" class="s2" d="m230.6 104.2h2.7v1.2h-2.7zm2 5.7q-0.7 0-1-0.4-0.4-0.3-0.4-1.1v-5.9h1.4v5.7q0 0.2 0 0.3 0.1 0.2 0.3 0.1h0.4v1.3h-0.7z"/>
		<path id="Layer" class="s2" d="m237.2 110q-0.8 0-1.4-0.3-0.6-0.3-0.9-0.9-0.3-0.5-0.3-1.3v-0.7q0-0.8 0.3-1.4 0.3-0.6 0.8-0.9 0.6-0.4 1.4-0.4 0.7 0 1.2 0.4 0.5 0.4 0.8 1.1 0.3 0.7 0.3 1.6v0.4h-3.9v-0.9h2.6v-0.1q0-0.6-0.3-0.9-0.3-0.4-0.8-0.4-0.5 0-0.9 0.4-0.3 0.4-0.3 1.1v0.7q0 0.6 0.4 1 0.3 0.3 0.9 0.3 0.4 0 0.7-0.1 0.3-0.1 0.6-0.3l0.8 0.8q-0.4 0.4-1 0.6-0.5 0.2-1.1 0.2"/>
		<path id="Layer" class="s2" d="m7.7 105.6v1.2q0 0.7-0.3 1.2-0.2 0.5-0.8 0.8-0.5 0.3-1.1 0.3-0.7 0-1.2-0.3-0.5-0.2-0.8-0.7-0.3-0.5-0.3-1.2v-1.9q0-0.7 0.3-1.2 0.3-0.5 0.8-0.8 0.5-0.3 1.1-0.3 0.6 0 1.1 0.2 0.4 0.2 0.7 0.7 0.4 0.4 0.5 0.9h-1.2q0-0.2-0.2-0.4-0.2-0.2-0.4-0.3-0.2-0.1-0.5-0.1-0.3 0-0.6 0.2-0.2 0.1-0.4 0.4-0.1 0.3-0.1 0.7v1.9q0 0.3 0.1 0.6 0.2 0.3 0.4 0.4 0.3 0.2 0.7 0.2 0.3 0 0.6-0.2 0.3-0.1 0.4-0.4 0.1-0.3 0.1-0.7v-0.2h-1.1v-1z"/>
		<path id="Layer" class="s2" d="m10.9 109.1q-0.7 0-1.1-0.2-0.5-0.3-0.7-0.7-0.3-0.5-0.3-1.1v-0.5q0-0.7 0.3-1.2 0.2-0.4 0.6-0.7 0.5-0.2 1.1-0.2 0.6 0 1 0.3 0.4 0.2 0.6 0.8 0.2 0.5 0.2 1.3v0.3h-3.1v-0.7h2.1v-0.1q0-0.5-0.2-0.7-0.3-0.3-0.6-0.3-0.5 0-0.7 0.3-0.3 0.3-0.3 0.8v0.6q0 0.5 0.3 0.8 0.2 0.3 0.7 0.3 0.3 0 0.5-0.1 0.3-0.1 0.5-0.3l0.7 0.6q-0.4 0.4-0.8 0.5-0.4 0.2-0.9 0.2"/>
		<path id="Layer" class="s2" d="m13.4 104.5h2.1v0.9h-2.1zm1.5 4.6q-0.5 0-0.8-0.3-0.2-0.3-0.2-0.9v-4.7h1v4.5q0 0.2 0.1 0.3 0 0.1 0.2 0.1h0.3v1c0 0-0.5 0-0.6 0z"/>
		<path id="Layer" class="s2" d="m19.5 102.7h3.7v1h-3.7zm0 2.8h3.2v0.9h-3.2zm-0.4-2.7h1v6.3h-1z"/>
		<path id="Layer" class="s2" d="m25 107.3q0 0.4 0.2 0.6 0.3 0.2 0.6 0.2 0.4 0 0.6-0.2 0.2-0.2 0.2-0.6l0.1 1q-0.1 0.3-0.4 0.6-0.3 0.2-0.8 0.2-0.7 0-1.1-0.5-0.4-0.4-0.4-1.3v-2.8h1zm1.6-2.7h1.1v4.5h-1.1z"/>
		<path id="Layer" class="s2" d="m28.6 104.5h2.1v0.9h-2.1zm1.5 4.6q-0.5 0-0.8-0.3-0.3-0.3-0.3-0.9v-4.7h1.1v4.5q0 0.2 0.1 0.3 0 0.1 0.1 0.1h0.4v1h-0.5z"/>
		<path id="Layer" class="s2" d="m32.9 107.3q0 0.4 0.2 0.6 0.2 0.2 0.6 0.2 0.4 0 0.6-0.2 0.2-0.2 0.2-0.6v1q-0.1 0.3-0.4 0.6-0.3 0.2-0.7 0.2-0.8 0-1.2-0.5-0.4-0.4-0.4-1.3v-2.8h1.1zm1.6-2.7h1v4.5h-1z"/>
		<path id="Layer" class="s2" d="m39.3 105.7q-0.1-0.1-0.3-0.2-0.1 0-0.3 0-0.4 0-0.6 0.2-0.3 0.2-0.3 0.6v-1q0.2-0.4 0.5-0.6 0.3-0.2 0.6-0.2 0.3 0 0.6 0.1 0.2 0.1 0.4 0.2c0 0-0.6 0.9-0.6 0.9zm-2.5-1.2h1.1v4.5h-1.1z"/>
		<path id="Layer" class="s2" d="m42.4 109.1q-0.7 0-1.1-0.2-0.5-0.3-0.7-0.7-0.3-0.5-0.3-1.1v-0.5q0-0.7 0.3-1.2 0.2-0.4 0.6-0.7 0.5-0.2 1.1-0.2 0.5 0 1 0.3 0.4 0.2 0.6 0.8 0.2 0.5 0.2 1.3v0.3h-3.1v-0.7h2.1v-0.1q0-0.5-0.2-0.7-0.3-0.3-0.6-0.3-0.5 0-0.8 0.3-0.2 0.3-0.2 0.8v0.6q0 0.5 0.3 0.8 0.2 0.3 0.7 0.3 0.3 0 0.5-0.1 0.3-0.1 0.5-0.3l0.7 0.6q-0.4 0.4-0.8 0.5-0.4 0.2-0.9 0.2"/>
		<path id="Layer" class="s2" d="m49.7 106.3l1-0.2 1.7 3h-1.3zm-1.9-3.6h1v6.4h-1zm0.4 2.7h2.2q0.2 0 0.4-0.1 0.1-0.2 0.2-0.3 0.1-0.2 0.1-0.5 0-0.3-0.1-0.4 0-0.2-0.2-0.3-0.2-0.2-0.4-0.2h-2.2v-0.9h2.2q0.6 0 1 0.2 0.4 0.2 0.6 0.6 0.2 0.4 0.2 1 0 0.6-0.2 1-0.2 0.4-0.6 0.6-0.4 0.3-1 0.3h-2.2v-1z"/>
		<path id="Layer" class="s2" d="m55.1 109.1q-0.6 0-1.1-0.2-0.4-0.3-0.7-0.7-0.2-0.5-0.2-1.1v-0.5q0-0.7 0.2-1.2 0.3-0.4 0.7-0.7 0.4-0.2 1-0.2 0.6 0 1 0.3 0.4 0.2 0.6 0.8 0.3 0.5 0.3 1.3v0.3h-3.1v-0.7h2.1v-0.1q-0.1-0.5-0.3-0.7-0.2-0.3-0.6-0.3-0.4 0-0.7 0.3-0.3 0.3-0.3 0.8v0.6q0 0.5 0.3 0.8 0.3 0.3 0.8 0.3 0.3 0 0.5-0.1 0.3-0.1 0.4-0.3l0.7 0.6q-0.3 0.4-0.7 0.5-0.5 0.2-0.9 0.2"/>
		<path id="Layer" class="s2" d="m59.3 109.1q-0.7 0-1.1-0.3-0.4-0.4-0.4-1.1c0-0.5 0.1-0.8 0.4-1q0.4-0.3 1.1-0.3h1.3v0.8h-1.2q-0.4 0-0.5 0.1-0.2 0.2-0.2 0.4 0 0.3 0.2 0.4 0.2 0.2 0.6 0.2 0.5 0 0.8-0.1 0.2-0.1 0.2-0.4l0.1 0.7q-0.1 0.2-0.3 0.3-0.1 0.2-0.4 0.2-0.3 0.1-0.6 0.1zm1.2-2.9q0-0.4-0.2-0.6-0.2-0.2-0.6-0.2-0.3 0-0.5 0.1-0.3 0.1-0.5 0.2l-0.7-0.6q0.3-0.3 0.7-0.4 0.4-0.2 1-0.2 0.5 0 0.9 0.2 0.4 0.2 0.6 0.6 0.3 0.3 0.3 0.9v2.8h-1v-2.8z"/>
		<path id="Layer" class="s2" d="m64.1 109.1q-0.5 0-0.8-0.2-0.3-0.2-0.5-0.6-0.2-0.5-0.2-1.1v-0.8q0-0.6 0.2-1 0.1-0.5 0.5-0.7 0.3-0.2 0.8-0.2 0.4 0 0.7 0.2 0.3 0.2 0.5 0.6l-0.1 1q0-0.3-0.1-0.5 0-0.2-0.2-0.3-0.2-0.1-0.4-0.1-0.4 0-0.6 0.3-0.3 0.2-0.3 0.7v0.8q0 0.5 0.3 0.7 0.2 0.3 0.6 0.3 0.2 0 0.4-0.1 0.1-0.1 0.2-0.3 0.1-0.2 0.1-0.4l0.1 0.9q-0.1 0.4-0.4 0.6-0.3 0.2-0.8 0.2m1.1-6.4h1.1v6.4h-1.1z"/>
		<path id="Layer" class="s2" d="m67 104.5h1.1l1.4 3.9-0.6 1zm4.1 0l-2 5.6q-0.1 0.3-0.3 0.5-0.2 0.1-0.4 0.2-0.2 0.1-0.6 0.1h-0.2v-1h0.2q0.2 0 0.4-0.1 0.1-0.1 0.2-0.3l1.6-5h1.1z"/>
		<path id="Layer" fill-rule="evenodd" class="s3" d="m73 11.3v45.6q-0.3 0.9-0.6 1.8-0.1 0.4-0.3 0.8v0.1q-0.2 0.4-0.3 0.8l-0.1 0.1q-0.1 0.4-0.3 0.8v0.1q-0.2 0.3-0.3 0.7l-0.1 0.1q-0.1 0.4-0.3 0.7v0.2q-0.2 0.3-0.3 0.7l-0.1 0.1q-0.1 0.3-0.3 0.7l-0.1 0.1q-0.1 0.3-0.3 0.7v0.1q-0.2 0.3-0.3 0.6l-0.1 0.2q-0.2 0.3-0.3 0.6l-0.1 0.2q-0.2 0.3-0.3 0.5l-0.2 0.3q-0.1 0.2-0.2 0.5l-0.2 0.2q-0.1 0.3-0.3 0.5l-0.1 0.3q-0.1 0.2-0.3 0.5l-0.1 0.2q-0.2 0.3-0.3 0.5l-0.2 0.3q-0.1 0.2-0.2 0.4-0.2 0.2-0.3 0.3-0.1 0.2-0.2 0.4-0.1 0.2-0.3 0.4l-0.1 0.3q-0.2 0.2-0.3 0.5l-0.2 0.2q-0.2 0.2-0.3 0.4l-0.2 0.2q-0.2 0.3-0.3 0.5l-0.1 0.2q-0.2 0.3-0.4 0.5l-0.1 0.1q-0.2 0.3-0.4 0.6l-0.1 0.1q-0.2 0.2-0.4 0.5l-0.1 0.1q-0.2 0.3-0.5 0.6-0.2 0.3-0.5 0.6-0.2 0.3-0.5 0.6-0.3 0.3-0.5 0.6h-0.1q-0.2 0.3-0.4 0.6h-0.1q-0.3 0.3-0.5 0.6c-6.1 6.3-13.6 11-22.3 14-17.2-6-29.4-18.1-35.9-37.3v-10.4h2v10.1c5.9 17.2 16.8 29.3 33.9 35.5 9.1-3.3 16.5-8.3 22.3-14.9v-74.1h13.6v8.2z"/>
		<path id="Layer" fill-rule="evenodd" class="s3" d="m54.9 4.1c0 0-8.3 0.4-16 6.1-3.3 2.5-5.4 5.2-7 7.8-13.2-0.7-24.9-9.8-30.4-14.9h-0.2v10c15 7.4 25.1 7.9 29.1 7.8q-0.3 0.5-0.6 1.1c-11.2 6.1-24 2.4-28.5 0.7v8.1c12.3 1.5 22.7-2.7 26.5-4.6-1.9 3.8-4.4 7.2-10.1 9.4-3.9 1.6-9.2 2.6-16.4 2v9.4c0 0 19.7 0.8 28.5-14.7 0 0 1.4-2.7 3.1-7.2 1.7-4.4 6-15.3 22-21"/>
		<path id="Layer" fill-rule="evenodd" class="s3" d="m53.9 85.3q0.1-0.2 0.3-0.3-0.2 0.1-0.3 0.3zm-0.3-2.4q1.5-1.2 2.8-2.5v-56.5h-2.8zm0 2.6z"/>
		<path id="Layer" fill-rule="evenodd" class="s3" d="m48.5 89q0.2-0.2 0.5-0.3-0.3 0.1-0.5 0.3zm1.1-0.7q0.2-0.1 0.3-0.2zm-1.8-1.3q1.5-0.9 2.9-1.8v-51.6h-2.9zm0.5 2.1q-0.2 0.1-0.5 0.3 0.3-0.2 0.5-0.3z"/>
		<path id="Layer" fill-rule="evenodd" class="s3" d="m41.9 43.5h2.9v45.3q-1.4 0.7-2.9 1.4v-46.8z"/>
		<path id="Layer" fill-rule="evenodd" class="s3" d="m37.2 94.3q0.3-0.2 0.7-0.3-0.4 0.1-0.7 0.3zm1.5-0.6q-0.4 0.1-0.7 0.3 0.3-0.2 0.7-0.3zm0.7-0.3q-0.3 0.2-0.6 0.3 0.3-0.2 0.6-0.3zm-11.5-5.5q-6.1-3.6-11-8.4h20.3v-3.9h-23.7q-3.2-4-5.7-8.6h29.4v-3.9h-31.3q-1.5-3.1-2.6-6.5v-2.2h36.2v36.8q-1.2 0.5-2.3 0.9-0.6-0.2-1.2-0.4h1.2v-3.8h-9.3zm0.3 0.1q0.1 0.1 0.2 0.1-0.1 0-0.2-0.1zm-0.3-0.1q0.2 0.1 0.3 0.1-0.1 0-0.3-0.1zm-21.4-23.4q-0.1-0.2-0.2-0.4 0.1 0.2 0.2 0.4zm10.2 14.7q-0.2-0.2-0.3-0.3 0.2 0.1 0.3 0.3zm11.9 9.1q0.3 0.1 0.5 0.2-0.2-0.1-0.5-0.2zm0.8 0.4q0.2 0.1 0.5 0.2-0.3-0.1-0.5-0.2zm2.8 1.4q1.4 0.6 2.9 1.2-1.5-0.6-2.9-1.2zm-26-26.4q-0.1-0.1-0.2-0.3 0.1 0.1 0.2 0.3zm0.7 1.5q-0.1-0.2-0.3-0.4 0.2 0.2 0.3 0.4zm0.3 0.7q-0.1-0.2-0.2-0.4 0.1 0.2 0.2 0.4zm23.4 23.4q-0.3-0.2-0.6-0.3 0.3 0.1 0.6 0.3zm0.7 0.4q-0.3-0.2-0.6-0.3 0.3 0.1 0.6 0.3zm0.8 0.3q-0.3-0.1-0.6-0.3 0.3 0.2 0.6 0.3zm3.8 1.6q-0.3-0.1-0.6-0.2 0.3 0.1 0.6 0.2z"/>
		<path id="Layer" fill-rule="evenodd" class="s3" d="m49.4 12.4c2.7 0 4.9 2.2 4.9 4.9 0 2.7-2.2 4.8-4.9 4.8-2.7 0-4.9-2.1-4.9-4.8 0-2.7 2.2-4.9 4.9-4.9z"/>
		<path id="Layer" class="s3" d="m25.2 96.1h2.6v0.7h-2.6zm0 1.8h2.2v0.7h-2.2zm0 1.8h2.6v0.7h-2.6zm-0.3-3.7h0.7v4.4h-0.7z"/>
		<path id="Layer" class="s3" d="m29.7 100.5q-0.3 0-0.6-0.1-0.2 0-0.5-0.1-0.2-0.1-0.3-0.3l0.4-0.5q0.2 0.2 0.5 0.3 0.2 0.1 0.5 0.1 0.3 0 0.5-0.1 0.1-0.1 0.1-0.3 0-0.1 0-0.2-0.1 0-0.3-0.1-0.1 0-0.3 0-0.1 0-0.1 0 0 0-0.1 0-0.3-0.1-0.6-0.1-0.2-0.1-0.3-0.3-0.2-0.2-0.1-0.5 0-0.3 0.1-0.6 0.1-0.2 0.4-0.3 0.3-0.1 0.7-0.1 0.2 0 0.5 0.1 0.2 0 0.4 0.1 0.2 0.1 0.4 0.2l-0.4 0.5q-0.3-0.1-0.5-0.2-0.2 0-0.4 0-0.3 0-0.4 0-0.2 0.1-0.2 0.3 0 0.1 0.1 0.1 0.1 0.1 0.2 0.1 0.1 0 0.3 0.1 0.1 0 0.1 0 0 0 0 0h0.1q0.3 0 0.6 0 0.2 0.1 0.3 0.3 0.2 0.2 0.2 0.6 0 0.3-0.1 0.6-0.2 0.2-0.5 0.3-0.3 0.1-0.7 0.1"/>
		<path id="Layer" class="s3" d="m31.5 97.3h1.4v0.6h-1.4zm1.1 3.2q-0.4 0-0.6-0.2-0.2-0.2-0.2-0.6v-3.3h0.7v3.2q0 0.1 0.1 0.1 0 0.1 0.1 0.1h0.3v0.7z"/>
		<path id="Layer" class="s3" d="m34.7 100.5q-0.3 0-0.6-0.2-0.2-0.1-0.3-0.4-0.2-0.3-0.2-0.7v-0.6q0-0.4 0.2-0.7 0.1-0.3 0.3-0.5 0.3-0.1 0.6-0.1 0.3 0 0.5 0.1 0.2 0.2 0.3 0.4v0.7q0-0.2-0.1-0.3-0.1-0.1-0.2-0.2-0.1-0.1-0.3-0.1-0.2 0-0.4 0.2-0.1 0.2-0.1 0.5v0.6q0 0.3 0.1 0.5 0.2 0.1 0.4 0.2 0.2 0 0.3-0.1 0.1-0.1 0.2-0.2 0.1-0.1 0.1-0.3v0.7q-0.1 0.2-0.3 0.4-0.2 0.1-0.5 0.1m0.8-4.4h0.7v4.3h-0.7z"/>
		<path id="Layer" class="s3" d="m36.9 99.7h0.8v0.8h-0.8z"/>
		<path id="Layer" class="s3" d="m38.4 99.8l1.5-2q0.1-0.2 0.2-0.3 0-0.2 0-0.3 0-0.3-0.1-0.4-0.1-0.1-0.4-0.1-0.2 0-0.4 0.2-0.1 0.1-0.1 0.4h-0.8q0.1-0.4 0.2-0.7 0.2-0.3 0.5-0.4 0.3-0.2 0.6-0.2 0.4 0 0.7 0.1 0.3 0.2 0.4 0.4 0.2 0.3 0.2 0.6 0 0.3-0.1 0.6-0.1 0.3-0.3 0.5l-1.2 1.6h1.6v0.6h-2.5v-0.6z"/>
		<path id="Layer" fill-rule="evenodd" class="s3" d="m42.9 100.5q-0.6 0-1-0.3-0.3-0.4-0.3-0.9v-2q0-0.6 0.3-1 0.4-0.3 1-0.3 0.6 0 1 0.3 0.3 0.4 0.3 0.9v2q0 0.6-0.3 1-0.4 0.3-1 0.3zm0-0.7q0.3 0 0.4-0.2 0.2-0.1 0.2-0.4v-1.8q0-0.3-0.2-0.5-0.1-0.2-0.4-0.2-0.3 0-0.4 0.2-0.2 0.2-0.2 0.5v1.8q0 0.3 0.2 0.4 0.1 0.2 0.4 0.2z"/>
		<path id="Layer" fill-rule="evenodd" class="s3" d="m46.2 100.5q-0.6 0-1-0.3-0.3-0.4-0.3-0.9v-2q0-0.6 0.3-1 0.4-0.3 1-0.3 0.6 0 1 0.3 0.3 0.4 0.3 0.9v2q0 0.6-0.3 1-0.4 0.3-1 0.3zm0-0.7q0.3 0 0.4-0.2 0.2-0.1 0.2-0.4v-1.8q0-0.3-0.2-0.5-0.1-0.2-0.4-0.2-0.3 0-0.4 0.2-0.2 0.2-0.2 0.5v1.8q0 0.3 0.2 0.4 0.1 0.2 0.4 0.2z"/>
		<path id="Layer" class="s3" d="m49.5 100.4h-0.8v-3.5l-0.6 0.3v-0.8l0.7-0.3h0.7v4.3z"/>
	</g>
</svg>